# xmcd CD database file generated by Grip 3.3.1
# 
# Track frame offsets:
#       150
#       11162
#       30885
#       44942
#       59732
#       75672
#       88940
#       107075
#       125747
#       144112
#       157515
#       166635
# 
# Disc length: 2463 seconds
# 
# Revision: 2
# Processed by: cddbd v1.5.2PL0 Copyright (c) Steve Scherf et al.
# Submitted via: Grip 3.3.1
# 
DISCID=93099d0c
DTITLE=Enya - Only Time - The Collection - Disc 1
DYEAR=2004
DGENRE=New Age
TTITLE0=Watermark
TTITLE1=Exile
TTITLE2=Aldebaran
TTITLE3=March of the Celts
TTITLE4=Boadicea
TTITLE5=The Sun in the Stream
TTITLE6=On Your Shore
TTITLE7=Cursum Perficio
TTITLE8=Storms in Africa
TTITLE9=The Celts
TTITLE10=Miss Clare Remembers
TTITLE11=I Want Tomorrow
EXTD=YEAR: 2004
EXTT0=
EXTT1=
EXTT2=
EXTT3=
EXTT4=
EXTT5=
EXTT6=
EXTT7=
EXTT8=
EXTT9=
EXTT10=
EXTT11=
PLAYORDER=
